<?xml version="1.0" encoding="UTF-8" standalone="no"?><!DOCTYPE svg PUBLIC "-//W3C//DTD SVG 1.1//EN" "http://www.w3.org/Graphics/SVG/1.1/DTD/svg11.dtd"><svg width="100%" height="100%" viewBox="0 0 625 938" version="1.1" xmlns="http://www.w3.org/2000/svg" xmlns:xlink="http://www.w3.org/1999/xlink" xml:space="preserve" xmlns:serif="http://www.serif.com/" style="fill-rule:evenodd;clip-rule:evenodd;stroke-linejoin:round;stroke-miterlimit:2;"><path d="M312.471,163.963c-172.561,0 -312.471,139.91 -312.471,312.51c0,138.068 89.532,255.187 213.711,296.529c15.635,2.859 21.333,-6.791 21.333,-15.079c0,-7.405 -0.269,-27.068 -0.422,-53.14c-86.923,18.877 -105.263,-41.898 -105.263,-41.898c-14.216,-36.104 -34.704,-45.716 -34.704,-45.716c-28.374,-19.376 2.148,-18.992 2.148,-18.992c31.366,2.206 47.865,32.21 47.865,32.21c27.874,47.75 73.149,33.956 90.952,25.956c2.839,-20.181 10.896,-33.956 19.836,-41.764c-69.389,-7.884 -142.346,-34.704 -142.346,-154.451c-0,-34.109 12.182,-62.003 32.171,-83.854c-3.222,-7.904 -13.946,-39.673 3.051,-82.703c-0,0 26.244,-8.402 85.945,32.038c24.92,-6.945 51.663,-10.398 78.233,-10.513c26.531,0.115 53.274,3.568 78.233,10.513c59.662,-40.44 85.849,-32.038 85.849,-32.038c17.054,43.03 6.33,74.799 3.107,82.703c20.029,21.851 32.134,49.745 32.134,83.854c-0,120.054 -73.073,146.471 -142.692,154.202c11.223,9.65 21.218,28.719 21.218,57.879c-0,41.764 -0.384,75.47 -0.384,85.714c0,8.365 5.621,18.091 21.486,15.041c124.083,-41.419 213.539,-158.461 213.539,-296.491c0,-172.6 -139.929,-312.51 -312.529,-312.51" style="fill:#fff;"/></svg>